<mxfile host="app.diagrams.net" modified="2024-05-21T20:37:39.805Z" agent="Mozilla/5.0 (Windows NT 10.0; Win64; x64) AppleWebKit/537.36 (KHTML, like Gecko) Chrome/125.0.0.0 Safari/537.36" etag="nvsEtSY_WsT4kltrmTwU" version="24.3.1" type="github">
  <diagram id="C5RBs43oDa-KdzZeNtuy" name="Page-1">
    <mxGraphModel dx="2117" dy="1691" grid="1" gridSize="10" guides="1" tooltips="1" connect="1" arrows="1" fold="1" page="1" pageScale="1" pageWidth="827" pageHeight="1169" math="0" shadow="0">
      <root>
        <mxCell id="WIyWlLk6GJQsqaUBKTNV-0" />
        <mxCell id="WIyWlLk6GJQsqaUBKTNV-1" parent="WIyWlLk6GJQsqaUBKTNV-0" />
        <mxCell id="6sasAcOzkPqKF-JLqJAu-21" style="edgeStyle=orthogonalEdgeStyle;rounded=0;orthogonalLoop=1;jettySize=auto;html=1;exitX=0.5;exitY=0;exitDx=0;exitDy=0;" edge="1" parent="WIyWlLk6GJQsqaUBKTNV-1" source="6sasAcOzkPqKF-JLqJAu-0" target="6sasAcOzkPqKF-JLqJAu-11">
          <mxGeometry relative="1" as="geometry" />
        </mxCell>
        <mxCell id="6sasAcOzkPqKF-JLqJAu-22" style="edgeStyle=orthogonalEdgeStyle;rounded=0;orthogonalLoop=1;jettySize=auto;html=1;exitX=0;exitY=0.5;exitDx=0;exitDy=0;" edge="1" parent="WIyWlLk6GJQsqaUBKTNV-1" source="6sasAcOzkPqKF-JLqJAu-0" target="6sasAcOzkPqKF-JLqJAu-14">
          <mxGeometry relative="1" as="geometry" />
        </mxCell>
        <mxCell id="6sasAcOzkPqKF-JLqJAu-0" value="&amp;lt;&amp;lt;controller&amp;gt;&amp;gt;&lt;br&gt;&lt;b&gt;WalletController&lt;/b&gt;" style="swimlane;fontStyle=0;align=center;verticalAlign=top;childLayout=stackLayout;horizontal=1;startSize=55;horizontalStack=0;resizeParent=1;resizeParentMax=0;resizeLast=0;collapsible=0;marginBottom=0;html=1;whiteSpace=wrap;" vertex="1" parent="WIyWlLk6GJQsqaUBKTNV-1">
          <mxGeometry x="300" y="160" width="240" height="220" as="geometry" />
        </mxCell>
        <mxCell id="6sasAcOzkPqKF-JLqJAu-5" value="" style="line;strokeWidth=1;fillColor=none;align=left;verticalAlign=middle;spacingTop=-1;spacingLeft=3;spacingRight=3;rotatable=0;labelPosition=right;points=[];portConstraint=eastwest;" vertex="1" parent="6sasAcOzkPqKF-JLqJAu-0">
          <mxGeometry y="55" width="240" height="8" as="geometry" />
        </mxCell>
        <mxCell id="6sasAcOzkPqKF-JLqJAu-7" value="+ validatefund(fund: int): boolean&lt;div&gt;+ GetWalletInfo(balance: int, walletid: int): Wallet&amp;nbsp;&lt;br&gt;&lt;/div&gt;&lt;div&gt;+ SendWalletConnection(walletid: int): Wallet&lt;/div&gt;&lt;div&gt;+ SendFundChange(fund: int, walletid: int): Wallet&lt;/div&gt;&lt;div&gt;+ GetHistoryTrans(fund: int, time: date, walletid: int, bankaccountId: string): HistoryTransaction&lt;br&gt;&lt;/div&gt;" style="text;html=1;strokeColor=none;fillColor=none;align=left;verticalAlign=middle;spacingLeft=4;spacingRight=4;overflow=hidden;rotatable=0;points=[[0,0.5],[1,0.5]];portConstraint=eastwest;whiteSpace=wrap;" vertex="1" parent="6sasAcOzkPqKF-JLqJAu-0">
          <mxGeometry y="63" width="240" height="157" as="geometry" />
        </mxCell>
        <mxCell id="6sasAcOzkPqKF-JLqJAu-20" style="edgeStyle=orthogonalEdgeStyle;rounded=0;orthogonalLoop=1;jettySize=auto;html=1;exitX=0;exitY=0.5;exitDx=0;exitDy=0;entryX=1;entryY=0.5;entryDx=0;entryDy=0;" edge="1" parent="WIyWlLk6GJQsqaUBKTNV-1" source="6sasAcOzkPqKF-JLqJAu-8" target="6sasAcOzkPqKF-JLqJAu-0">
          <mxGeometry relative="1" as="geometry" />
        </mxCell>
        <mxCell id="6sasAcOzkPqKF-JLqJAu-27" style="edgeStyle=orthogonalEdgeStyle;rounded=0;orthogonalLoop=1;jettySize=auto;html=1;exitX=0.5;exitY=0;exitDx=0;exitDy=0;" edge="1" parent="WIyWlLk6GJQsqaUBKTNV-1" source="6sasAcOzkPqKF-JLqJAu-8" target="6sasAcOzkPqKF-JLqJAu-24">
          <mxGeometry relative="1" as="geometry" />
        </mxCell>
        <mxCell id="6sasAcOzkPqKF-JLqJAu-8" value="&amp;lt;&amp;lt;boundary&amp;gt;&amp;gt;&lt;br&gt;&lt;b&gt;WalletSerciveBoundary&lt;/b&gt;" style="swimlane;fontStyle=0;align=center;verticalAlign=top;childLayout=stackLayout;horizontal=1;startSize=55;horizontalStack=0;resizeParent=1;resizeParentMax=0;resizeLast=0;collapsible=0;marginBottom=0;html=1;whiteSpace=wrap;" vertex="1" parent="WIyWlLk6GJQsqaUBKTNV-1">
          <mxGeometry x="630" y="190" width="330" height="160" as="geometry" />
        </mxCell>
        <mxCell id="6sasAcOzkPqKF-JLqJAu-9" value="" style="line;strokeWidth=1;fillColor=none;align=left;verticalAlign=middle;spacingTop=-1;spacingLeft=3;spacingRight=3;rotatable=0;labelPosition=right;points=[];portConstraint=eastwest;" vertex="1" parent="6sasAcOzkPqKF-JLqJAu-8">
          <mxGeometry y="55" width="330" height="8" as="geometry" />
        </mxCell>
        <mxCell id="6sasAcOzkPqKF-JLqJAu-10" value="+ SendDepositeForm(form: DepositeForm): void&lt;div&gt;+ SendWithdrawForm(form: WithdrawForm): void&lt;/div&gt;&lt;div&gt;+ GetWalletInfo(balance: int, walletid: int): Wallet&amp;nbsp;&lt;/div&gt;&lt;div&gt;+ GetHistoryTrans(fund: int, time: date): HistoryTransaction&lt;br&gt;&lt;/div&gt;" style="text;html=1;strokeColor=none;fillColor=none;align=left;verticalAlign=middle;spacingLeft=4;spacingRight=4;overflow=hidden;rotatable=0;points=[[0,0.5],[1,0.5]];portConstraint=eastwest;whiteSpace=wrap;" vertex="1" parent="6sasAcOzkPqKF-JLqJAu-8">
          <mxGeometry y="63" width="330" height="97" as="geometry" />
        </mxCell>
        <mxCell id="6sasAcOzkPqKF-JLqJAu-23" style="edgeStyle=orthogonalEdgeStyle;rounded=0;orthogonalLoop=1;jettySize=auto;html=1;exitX=0;exitY=0.5;exitDx=0;exitDy=0;" edge="1" parent="WIyWlLk6GJQsqaUBKTNV-1" source="6sasAcOzkPqKF-JLqJAu-11" target="6sasAcOzkPqKF-JLqJAu-17">
          <mxGeometry relative="1" as="geometry" />
        </mxCell>
        <mxCell id="6sasAcOzkPqKF-JLqJAu-11" value="&amp;lt;&amp;lt;entity&amp;gt;&amp;gt;&lt;br&gt;&lt;b&gt;Wallet&lt;/b&gt;" style="swimlane;fontStyle=0;align=center;verticalAlign=top;childLayout=stackLayout;horizontal=1;startSize=55;horizontalStack=0;resizeParent=1;resizeParentMax=0;resizeLast=0;collapsible=0;marginBottom=0;html=1;whiteSpace=wrap;" vertex="1" parent="WIyWlLk6GJQsqaUBKTNV-1">
          <mxGeometry x="280" y="-90" width="280" height="150" as="geometry" />
        </mxCell>
        <mxCell id="6sasAcOzkPqKF-JLqJAu-12" value="" style="line;strokeWidth=1;fillColor=none;align=left;verticalAlign=middle;spacingTop=-1;spacingLeft=3;spacingRight=3;rotatable=0;labelPosition=right;points=[];portConstraint=eastwest;" vertex="1" parent="6sasAcOzkPqKF-JLqJAu-11">
          <mxGeometry y="55" width="280" height="8" as="geometry" />
        </mxCell>
        <mxCell id="6sasAcOzkPqKF-JLqJAu-13" value="+ GetWalletInfo(balance: int, walletid: int): Wallet&amp;nbsp;&lt;div&gt;+ GetHistoryTrans(fund: int, time: date, walletid: int, bankaccountId: string): HistoryTransaction&lt;/div&gt;" style="text;html=1;strokeColor=none;fillColor=none;align=left;verticalAlign=middle;spacingLeft=4;spacingRight=4;overflow=hidden;rotatable=0;points=[[0,0.5],[1,0.5]];portConstraint=eastwest;whiteSpace=wrap;" vertex="1" parent="6sasAcOzkPqKF-JLqJAu-11">
          <mxGeometry y="63" width="280" height="87" as="geometry" />
        </mxCell>
        <mxCell id="6sasAcOzkPqKF-JLqJAu-14" value="&amp;lt;&amp;lt;interface&amp;gt;&amp;gt;&lt;br&gt;&lt;b&gt;BankingSystemInterface&lt;/b&gt;" style="swimlane;fontStyle=0;align=center;verticalAlign=top;childLayout=stackLayout;horizontal=1;startSize=55;horizontalStack=0;resizeParent=1;resizeParentMax=0;resizeLast=0;collapsible=0;marginBottom=0;html=1;whiteSpace=wrap;" vertex="1" parent="WIyWlLk6GJQsqaUBKTNV-1">
          <mxGeometry x="-90" y="175" width="320" height="190" as="geometry" />
        </mxCell>
        <mxCell id="6sasAcOzkPqKF-JLqJAu-15" value="" style="line;strokeWidth=1;fillColor=none;align=left;verticalAlign=middle;spacingTop=-1;spacingLeft=3;spacingRight=3;rotatable=0;labelPosition=right;points=[];portConstraint=eastwest;" vertex="1" parent="6sasAcOzkPqKF-JLqJAu-14">
          <mxGeometry y="55" width="320" height="8" as="geometry" />
        </mxCell>
        <mxCell id="6sasAcOzkPqKF-JLqJAu-16" value="&lt;div&gt;+ GetBankAccoutID(): string&lt;/div&gt;+ SendConnectRequest(bankaccountid: id ,walletid: int): Wallet&lt;div&gt;+ SendWithdrawRequest(fund: int,&amp;nbsp;&lt;span style=&quot;background-color: initial;&quot;&gt;bankaccountid: id ,walletid: int): Wallet&lt;/span&gt;&lt;/div&gt;&lt;div&gt;+ SendDepositeRequest(fund: int,&amp;nbsp;&lt;span style=&quot;background-color: initial;&quot;&gt;bankaccountid: id ,walletid: int): Wallet&lt;/span&gt;&lt;span style=&quot;background-color: initial;&quot;&gt;&lt;br&gt;&lt;/span&gt;&lt;/div&gt;" style="text;html=1;strokeColor=none;fillColor=none;align=left;verticalAlign=middle;spacingLeft=4;spacingRight=4;overflow=hidden;rotatable=0;points=[[0,0.5],[1,0.5]];portConstraint=eastwest;whiteSpace=wrap;" vertex="1" parent="6sasAcOzkPqKF-JLqJAu-14">
          <mxGeometry y="63" width="320" height="127" as="geometry" />
        </mxCell>
        <mxCell id="6sasAcOzkPqKF-JLqJAu-17" value="&amp;lt;&amp;lt;entity&amp;gt;&amp;gt;&lt;br&gt;&lt;b&gt;HistoryTransaction&lt;/b&gt;" style="swimlane;fontStyle=0;align=center;verticalAlign=top;childLayout=stackLayout;horizontal=1;startSize=55;horizontalStack=0;resizeParent=1;resizeParentMax=0;resizeLast=0;collapsible=0;marginBottom=0;html=1;whiteSpace=wrap;" vertex="1" parent="WIyWlLk6GJQsqaUBKTNV-1">
          <mxGeometry x="-10" y="-80" width="200" height="130" as="geometry" />
        </mxCell>
        <mxCell id="6sasAcOzkPqKF-JLqJAu-18" value="" style="line;strokeWidth=1;fillColor=none;align=left;verticalAlign=middle;spacingTop=-1;spacingLeft=3;spacingRight=3;rotatable=0;labelPosition=right;points=[];portConstraint=eastwest;" vertex="1" parent="6sasAcOzkPqKF-JLqJAu-17">
          <mxGeometry y="55" width="200" height="8" as="geometry" />
        </mxCell>
        <mxCell id="6sasAcOzkPqKF-JLqJAu-19" value="+ SaveTransaction(fund: int, time: date, walletid: int, bankaccountid: string): void" style="text;html=1;strokeColor=none;fillColor=none;align=left;verticalAlign=middle;spacingLeft=4;spacingRight=4;overflow=hidden;rotatable=0;points=[[0,0.5],[1,0.5]];portConstraint=eastwest;whiteSpace=wrap;" vertex="1" parent="6sasAcOzkPqKF-JLqJAu-17">
          <mxGeometry y="63" width="200" height="67" as="geometry" />
        </mxCell>
        <mxCell id="6sasAcOzkPqKF-JLqJAu-24" value="&amp;lt;&amp;lt;entity&amp;gt;&amp;gt;&lt;br&gt;&lt;b&gt;Deposite/WithdrawForm&lt;/b&gt;" style="swimlane;fontStyle=0;align=center;verticalAlign=top;childLayout=stackLayout;horizontal=1;startSize=55;horizontalStack=0;resizeParent=1;resizeParentMax=0;resizeLast=0;collapsible=0;marginBottom=0;html=1;whiteSpace=wrap;" vertex="1" parent="WIyWlLk6GJQsqaUBKTNV-1">
          <mxGeometry x="630" y="-90" width="330" height="160" as="geometry" />
        </mxCell>
        <mxCell id="6sasAcOzkPqKF-JLqJAu-25" value="" style="line;strokeWidth=1;fillColor=none;align=left;verticalAlign=middle;spacingTop=-1;spacingLeft=3;spacingRight=3;rotatable=0;labelPosition=right;points=[];portConstraint=eastwest;" vertex="1" parent="6sasAcOzkPqKF-JLqJAu-24">
          <mxGeometry y="55" width="330" height="8" as="geometry" />
        </mxCell>
        <mxCell id="6sasAcOzkPqKF-JLqJAu-26" value="+ isValidate(): boolean&lt;div&gt;+ getFundDeposite() int&lt;/div&gt;&lt;div&gt;+ getFundWithdraw(): int&lt;/div&gt;&lt;div&gt;+ changeAccepted(): void&lt;/div&gt;" style="text;html=1;strokeColor=none;fillColor=none;align=left;verticalAlign=middle;spacingLeft=4;spacingRight=4;overflow=hidden;rotatable=0;points=[[0,0.5],[1,0.5]];portConstraint=eastwest;whiteSpace=wrap;" vertex="1" parent="6sasAcOzkPqKF-JLqJAu-24">
          <mxGeometry y="63" width="330" height="97" as="geometry" />
        </mxCell>
        <mxCell id="6sasAcOzkPqKF-JLqJAu-28" value="1" style="text;html=1;align=center;verticalAlign=middle;whiteSpace=wrap;rounded=0;" vertex="1" parent="WIyWlLk6GJQsqaUBKTNV-1">
          <mxGeometry x="410" y="130" width="50" height="30" as="geometry" />
        </mxCell>
        <mxCell id="6sasAcOzkPqKF-JLqJAu-29" value="0..1" style="text;html=1;align=center;verticalAlign=middle;whiteSpace=wrap;rounded=0;" vertex="1" parent="WIyWlLk6GJQsqaUBKTNV-1">
          <mxGeometry x="414" y="60" width="50" height="30" as="geometry" />
        </mxCell>
        <mxCell id="6sasAcOzkPqKF-JLqJAu-30" value="1" style="text;html=1;align=center;verticalAlign=middle;whiteSpace=wrap;rounded=0;" vertex="1" parent="WIyWlLk6GJQsqaUBKTNV-1">
          <mxGeometry x="210" y="240" width="50" height="30" as="geometry" />
        </mxCell>
        <mxCell id="6sasAcOzkPqKF-JLqJAu-31" value="1" style="text;html=1;align=center;verticalAlign=middle;whiteSpace=wrap;rounded=0;" vertex="1" parent="WIyWlLk6GJQsqaUBKTNV-1">
          <mxGeometry x="270" y="240" width="50" height="30" as="geometry" />
        </mxCell>
        <mxCell id="6sasAcOzkPqKF-JLqJAu-32" value="1" style="text;html=1;align=center;verticalAlign=middle;whiteSpace=wrap;rounded=0;" vertex="1" parent="WIyWlLk6GJQsqaUBKTNV-1">
          <mxGeometry x="580" y="240" width="50" height="30" as="geometry" />
        </mxCell>
        <mxCell id="6sasAcOzkPqKF-JLqJAu-33" value="1" style="text;html=1;align=center;verticalAlign=middle;whiteSpace=wrap;rounded=0;" vertex="1" parent="WIyWlLk6GJQsqaUBKTNV-1">
          <mxGeometry x="520" y="270" width="50" height="30" as="geometry" />
        </mxCell>
        <mxCell id="6sasAcOzkPqKF-JLqJAu-34" value="0..1" style="text;html=1;align=center;verticalAlign=middle;whiteSpace=wrap;rounded=0;" vertex="1" parent="WIyWlLk6GJQsqaUBKTNV-1">
          <mxGeometry x="790" y="70" width="50" height="30" as="geometry" />
        </mxCell>
        <mxCell id="6sasAcOzkPqKF-JLqJAu-35" value="1" style="text;html=1;align=center;verticalAlign=middle;whiteSpace=wrap;rounded=0;" vertex="1" parent="WIyWlLk6GJQsqaUBKTNV-1">
          <mxGeometry x="790" y="160" width="50" height="30" as="geometry" />
        </mxCell>
        <mxCell id="6sasAcOzkPqKF-JLqJAu-36" value="0..n" style="text;html=1;align=center;verticalAlign=middle;whiteSpace=wrap;rounded=0;" vertex="1" parent="WIyWlLk6GJQsqaUBKTNV-1">
          <mxGeometry x="190" y="-40" width="50" height="30" as="geometry" />
        </mxCell>
        <mxCell id="6sasAcOzkPqKF-JLqJAu-37" value="1" style="text;html=1;align=center;verticalAlign=middle;whiteSpace=wrap;rounded=0;" vertex="1" parent="WIyWlLk6GJQsqaUBKTNV-1">
          <mxGeometry x="240" y="-20" width="50" height="30" as="geometry" />
        </mxCell>
        <mxCell id="6sasAcOzkPqKF-JLqJAu-54" style="edgeStyle=orthogonalEdgeStyle;rounded=0;orthogonalLoop=1;jettySize=auto;html=1;exitX=1;exitY=0.5;exitDx=0;exitDy=0;entryX=0;entryY=0.5;entryDx=0;entryDy=0;" edge="1" parent="WIyWlLk6GJQsqaUBKTNV-1" source="6sasAcOzkPqKF-JLqJAu-38" target="6sasAcOzkPqKF-JLqJAu-42">
          <mxGeometry relative="1" as="geometry" />
        </mxCell>
        <mxCell id="6sasAcOzkPqKF-JLqJAu-38" value="&amp;lt;&amp;lt;boundary&amp;gt;&amp;gt;&lt;br&gt;&lt;b&gt;AdminSubmitFormBoundary&lt;/b&gt;" style="swimlane;fontStyle=0;align=center;verticalAlign=top;childLayout=stackLayout;horizontal=1;startSize=55;horizontalStack=0;resizeParent=1;resizeParentMax=0;resizeLast=0;collapsible=0;marginBottom=0;html=1;whiteSpace=wrap;" vertex="1" parent="WIyWlLk6GJQsqaUBKTNV-1">
          <mxGeometry x="320" y="740" width="200" height="110" as="geometry" />
        </mxCell>
        <mxCell id="6sasAcOzkPqKF-JLqJAu-39" value="" style="line;strokeWidth=1;fillColor=none;align=left;verticalAlign=middle;spacingTop=-1;spacingLeft=3;spacingRight=3;rotatable=0;labelPosition=right;points=[];portConstraint=eastwest;" vertex="1" parent="6sasAcOzkPqKF-JLqJAu-38">
          <mxGeometry y="55" width="200" height="8" as="geometry" />
        </mxCell>
        <mxCell id="6sasAcOzkPqKF-JLqJAu-40" value="+ getContent(): string&lt;div&gt;&lt;br&gt;&lt;/div&gt;" style="text;html=1;strokeColor=none;fillColor=none;align=left;verticalAlign=middle;spacingLeft=4;spacingRight=4;overflow=hidden;rotatable=0;points=[[0,0.5],[1,0.5]];portConstraint=eastwest;whiteSpace=wrap;" vertex="1" parent="6sasAcOzkPqKF-JLqJAu-38">
          <mxGeometry y="63" width="200" height="47" as="geometry" />
        </mxCell>
        <mxCell id="6sasAcOzkPqKF-JLqJAu-55" style="edgeStyle=orthogonalEdgeStyle;rounded=0;orthogonalLoop=1;jettySize=auto;html=1;exitX=1;exitY=0.5;exitDx=0;exitDy=0;" edge="1" parent="WIyWlLk6GJQsqaUBKTNV-1" source="6sasAcOzkPqKF-JLqJAu-42" target="6sasAcOzkPqKF-JLqJAu-45">
          <mxGeometry relative="1" as="geometry" />
        </mxCell>
        <mxCell id="6sasAcOzkPqKF-JLqJAu-56" style="edgeStyle=orthogonalEdgeStyle;rounded=0;orthogonalLoop=1;jettySize=auto;html=1;exitX=0.5;exitY=0;exitDx=0;exitDy=0;" edge="1" parent="WIyWlLk6GJQsqaUBKTNV-1" source="6sasAcOzkPqKF-JLqJAu-42" target="6sasAcOzkPqKF-JLqJAu-48">
          <mxGeometry relative="1" as="geometry" />
        </mxCell>
        <mxCell id="6sasAcOzkPqKF-JLqJAu-42" value="&amp;lt;&amp;lt;controller&amp;gt;&amp;gt;&lt;br&gt;&lt;b&gt;SentInfoController&lt;/b&gt;" style="swimlane;fontStyle=0;align=center;verticalAlign=top;childLayout=stackLayout;horizontal=1;startSize=55;horizontalStack=0;resizeParent=1;resizeParentMax=0;resizeLast=0;collapsible=0;marginBottom=0;html=1;whiteSpace=wrap;" vertex="1" parent="WIyWlLk6GJQsqaUBKTNV-1">
          <mxGeometry x="590" y="740" width="200" height="110" as="geometry" />
        </mxCell>
        <mxCell id="6sasAcOzkPqKF-JLqJAu-43" value="" style="line;strokeWidth=1;fillColor=none;align=left;verticalAlign=middle;spacingTop=-1;spacingLeft=3;spacingRight=3;rotatable=0;labelPosition=right;points=[];portConstraint=eastwest;" vertex="1" parent="6sasAcOzkPqKF-JLqJAu-42">
          <mxGeometry y="55" width="200" height="8" as="geometry" />
        </mxCell>
        <mxCell id="6sasAcOzkPqKF-JLqJAu-44" value="+ sendNotification() void&lt;div&gt;+ checkFormat(): boolean&lt;/div&gt;" style="text;html=1;strokeColor=none;fillColor=none;align=left;verticalAlign=middle;spacingLeft=4;spacingRight=4;overflow=hidden;rotatable=0;points=[[0,0.5],[1,0.5]];portConstraint=eastwest;whiteSpace=wrap;" vertex="1" parent="6sasAcOzkPqKF-JLqJAu-42">
          <mxGeometry y="63" width="200" height="47" as="geometry" />
        </mxCell>
        <mxCell id="6sasAcOzkPqKF-JLqJAu-45" value="&amp;lt;&amp;lt;boundary&amp;gt;&amp;gt;&lt;br&gt;&lt;b&gt;UserBoundary&lt;/b&gt;" style="swimlane;fontStyle=0;align=center;verticalAlign=top;childLayout=stackLayout;horizontal=1;startSize=55;horizontalStack=0;resizeParent=1;resizeParentMax=0;resizeLast=0;collapsible=0;marginBottom=0;html=1;whiteSpace=wrap;" vertex="1" parent="WIyWlLk6GJQsqaUBKTNV-1">
          <mxGeometry x="880" y="740" width="200" height="110" as="geometry" />
        </mxCell>
        <mxCell id="6sasAcOzkPqKF-JLqJAu-46" value="" style="line;strokeWidth=1;fillColor=none;align=left;verticalAlign=middle;spacingTop=-1;spacingLeft=3;spacingRight=3;rotatable=0;labelPosition=right;points=[];portConstraint=eastwest;" vertex="1" parent="6sasAcOzkPqKF-JLqJAu-45">
          <mxGeometry y="55" width="200" height="8" as="geometry" />
        </mxCell>
        <mxCell id="6sasAcOzkPqKF-JLqJAu-47" value="+ getNotification(): string" style="text;html=1;strokeColor=none;fillColor=none;align=left;verticalAlign=middle;spacingLeft=4;spacingRight=4;overflow=hidden;rotatable=0;points=[[0,0.5],[1,0.5]];portConstraint=eastwest;whiteSpace=wrap;" vertex="1" parent="6sasAcOzkPqKF-JLqJAu-45">
          <mxGeometry y="63" width="200" height="47" as="geometry" />
        </mxCell>
        <mxCell id="6sasAcOzkPqKF-JLqJAu-48" value="&amp;lt;&amp;lt;entity&amp;gt;&amp;gt;&lt;br&gt;&lt;b&gt;HistoryInfo&lt;/b&gt;" style="swimlane;fontStyle=0;align=center;verticalAlign=top;childLayout=stackLayout;horizontal=1;startSize=55;horizontalStack=0;resizeParent=1;resizeParentMax=0;resizeLast=0;collapsible=0;marginBottom=0;html=1;whiteSpace=wrap;" vertex="1" parent="WIyWlLk6GJQsqaUBKTNV-1">
          <mxGeometry x="590" y="570" width="200" height="130" as="geometry" />
        </mxCell>
        <mxCell id="6sasAcOzkPqKF-JLqJAu-49" value="" style="line;strokeWidth=1;fillColor=none;align=left;verticalAlign=middle;spacingTop=-1;spacingLeft=3;spacingRight=3;rotatable=0;labelPosition=right;points=[];portConstraint=eastwest;" vertex="1" parent="6sasAcOzkPqKF-JLqJAu-48">
          <mxGeometry y="55" width="200" height="8" as="geometry" />
        </mxCell>
        <mxCell id="6sasAcOzkPqKF-JLqJAu-50" value="+ updateDatabase() void" style="text;html=1;strokeColor=none;fillColor=none;align=left;verticalAlign=middle;spacingLeft=4;spacingRight=4;overflow=hidden;rotatable=0;points=[[0,0.5],[1,0.5]];portConstraint=eastwest;whiteSpace=wrap;" vertex="1" parent="6sasAcOzkPqKF-JLqJAu-48">
          <mxGeometry y="63" width="200" height="67" as="geometry" />
        </mxCell>
        <mxCell id="6sasAcOzkPqKF-JLqJAu-67" style="edgeStyle=orthogonalEdgeStyle;rounded=0;orthogonalLoop=1;jettySize=auto;html=1;exitX=1;exitY=0.5;exitDx=0;exitDy=0;entryX=0;entryY=0.5;entryDx=0;entryDy=0;" edge="1" parent="WIyWlLk6GJQsqaUBKTNV-1" source="6sasAcOzkPqKF-JLqJAu-57" target="6sasAcOzkPqKF-JLqJAu-66">
          <mxGeometry relative="1" as="geometry" />
        </mxCell>
        <mxCell id="6sasAcOzkPqKF-JLqJAu-57" value="" style="ellipse;whiteSpace=wrap;html=1;aspect=fixed;fillColor=#FFFFFF;strokeColor=#FF0000;" vertex="1" parent="WIyWlLk6GJQsqaUBKTNV-1">
          <mxGeometry x="-680" y="680" width="40" height="40" as="geometry" />
        </mxCell>
        <mxCell id="6sasAcOzkPqKF-JLqJAu-58" value="" style="ellipse;whiteSpace=wrap;html=1;aspect=fixed;fillColor=#000000;strokeColor=#FF0000;" vertex="1" parent="WIyWlLk6GJQsqaUBKTNV-1">
          <mxGeometry x="-676.57" y="683.43" width="33.13" height="33.13" as="geometry" />
        </mxCell>
        <mxCell id="6sasAcOzkPqKF-JLqJAu-69" style="edgeStyle=orthogonalEdgeStyle;rounded=0;orthogonalLoop=1;jettySize=auto;html=1;exitX=0.5;exitY=1;exitDx=0;exitDy=0;entryX=0.5;entryY=0;entryDx=0;entryDy=0;" edge="1" parent="WIyWlLk6GJQsqaUBKTNV-1" source="6sasAcOzkPqKF-JLqJAu-63" target="6sasAcOzkPqKF-JLqJAu-64">
          <mxGeometry relative="1" as="geometry" />
        </mxCell>
        <mxCell id="6sasAcOzkPqKF-JLqJAu-74" style="edgeStyle=orthogonalEdgeStyle;rounded=0;orthogonalLoop=1;jettySize=auto;html=1;exitX=1;exitY=0.5;exitDx=0;exitDy=0;entryX=0;entryY=0.5;entryDx=0;entryDy=0;" edge="1" parent="WIyWlLk6GJQsqaUBKTNV-1" source="6sasAcOzkPqKF-JLqJAu-63" target="6sasAcOzkPqKF-JLqJAu-72">
          <mxGeometry relative="1" as="geometry" />
        </mxCell>
        <mxCell id="6sasAcOzkPqKF-JLqJAu-63" value="CheckFormat" style="rounded=1;whiteSpace=wrap;html=1;" vertex="1" parent="WIyWlLk6GJQsqaUBKTNV-1">
          <mxGeometry x="-390" y="674.99" width="110" height="50.01" as="geometry" />
        </mxCell>
        <mxCell id="6sasAcOzkPqKF-JLqJAu-64" value="" style="ellipse;whiteSpace=wrap;html=1;aspect=fixed;fillColor=#FFFFFF;strokeColor=#FF0000;" vertex="1" parent="WIyWlLk6GJQsqaUBKTNV-1">
          <mxGeometry x="-355" y="800" width="40" height="40" as="geometry" />
        </mxCell>
        <mxCell id="6sasAcOzkPqKF-JLqJAu-65" value="" style="ellipse;whiteSpace=wrap;html=1;aspect=fixed;fillColor=#000000;strokeColor=#FF0000;" vertex="1" parent="WIyWlLk6GJQsqaUBKTNV-1">
          <mxGeometry x="-351.56000000000006" y="803.4399999999999" width="33.13" height="33.13" as="geometry" />
        </mxCell>
        <mxCell id="6sasAcOzkPqKF-JLqJAu-68" style="edgeStyle=orthogonalEdgeStyle;rounded=0;orthogonalLoop=1;jettySize=auto;html=1;exitX=1;exitY=0.5;exitDx=0;exitDy=0;entryX=0;entryY=0.5;entryDx=0;entryDy=0;" edge="1" parent="WIyWlLk6GJQsqaUBKTNV-1" source="6sasAcOzkPqKF-JLqJAu-66" target="6sasAcOzkPqKF-JLqJAu-63">
          <mxGeometry relative="1" as="geometry" />
        </mxCell>
        <mxCell id="6sasAcOzkPqKF-JLqJAu-66" value="Import Content" style="rounded=1;whiteSpace=wrap;html=1;" vertex="1" parent="WIyWlLk6GJQsqaUBKTNV-1">
          <mxGeometry x="-570" y="674.99" width="110" height="50.01" as="geometry" />
        </mxCell>
        <mxCell id="6sasAcOzkPqKF-JLqJAu-72" value="" style="ellipse;whiteSpace=wrap;html=1;aspect=fixed;fillColor=#FFFFFF;strokeColor=#FF0000;" vertex="1" parent="WIyWlLk6GJQsqaUBKTNV-1">
          <mxGeometry x="-180" y="679.99" width="40" height="40" as="geometry" />
        </mxCell>
        <mxCell id="6sasAcOzkPqKF-JLqJAu-73" value="" style="ellipse;whiteSpace=wrap;html=1;aspect=fixed;fillColor=#000000;strokeColor=#FF0000;" vertex="1" parent="WIyWlLk6GJQsqaUBKTNV-1">
          <mxGeometry x="-176.57000000000005" y="683.42" width="33.13" height="33.13" as="geometry" />
        </mxCell>
        <mxCell id="6sasAcOzkPqKF-JLqJAu-75" value="isValid" style="text;html=1;align=center;verticalAlign=middle;whiteSpace=wrap;rounded=0;" vertex="1" parent="WIyWlLk6GJQsqaUBKTNV-1">
          <mxGeometry x="-260" y="670" width="60" height="30" as="geometry" />
        </mxCell>
        <mxCell id="6sasAcOzkPqKF-JLqJAu-79" value="isNotValid" style="text;html=1;align=center;verticalAlign=middle;whiteSpace=wrap;rounded=0;" vertex="1" parent="WIyWlLk6GJQsqaUBKTNV-1">
          <mxGeometry x="-330" y="740" width="60" height="30" as="geometry" />
        </mxCell>
        <mxCell id="6sasAcOzkPqKF-JLqJAu-80" value="start" style="text;html=1;align=center;verticalAlign=middle;whiteSpace=wrap;rounded=0;" vertex="1" parent="WIyWlLk6GJQsqaUBKTNV-1">
          <mxGeometry x="-690.01" y="644.99" width="60" height="30" as="geometry" />
        </mxCell>
        <mxCell id="6sasAcOzkPqKF-JLqJAu-81" value="send" style="text;html=1;align=center;verticalAlign=middle;whiteSpace=wrap;rounded=0;" vertex="1" parent="WIyWlLk6GJQsqaUBKTNV-1">
          <mxGeometry x="-190" y="649.99" width="60" height="30" as="geometry" />
        </mxCell>
        <mxCell id="6sasAcOzkPqKF-JLqJAu-82" value="sendError" style="text;html=1;align=center;verticalAlign=middle;whiteSpace=wrap;rounded=0;" vertex="1" parent="WIyWlLk6GJQsqaUBKTNV-1">
          <mxGeometry x="-310" y="805" width="60" height="30" as="geometry" />
        </mxCell>
        <mxCell id="6sasAcOzkPqKF-JLqJAu-91" style="edgeStyle=orthogonalEdgeStyle;rounded=0;orthogonalLoop=1;jettySize=auto;html=1;exitX=1;exitY=0.5;exitDx=0;exitDy=0;entryX=0;entryY=0.5;entryDx=0;entryDy=0;" edge="1" parent="WIyWlLk6GJQsqaUBKTNV-1" source="6sasAcOzkPqKF-JLqJAu-83" target="6sasAcOzkPqKF-JLqJAu-85">
          <mxGeometry relative="1" as="geometry" />
        </mxCell>
        <mxCell id="6sasAcOzkPqKF-JLqJAu-83" value="" style="ellipse;whiteSpace=wrap;html=1;aspect=fixed;fillColor=#FFFFFF;strokeColor=#FF0000;" vertex="1" parent="WIyWlLk6GJQsqaUBKTNV-1">
          <mxGeometry x="-680.01" y="1000" width="40" height="40" as="geometry" />
        </mxCell>
        <mxCell id="6sasAcOzkPqKF-JLqJAu-84" value="" style="ellipse;whiteSpace=wrap;html=1;aspect=fixed;fillColor=#000000;strokeColor=#FF0000;" vertex="1" parent="WIyWlLk6GJQsqaUBKTNV-1">
          <mxGeometry x="-676.57" y="1003.4399999999999" width="33.13" height="33.13" as="geometry" />
        </mxCell>
        <mxCell id="6sasAcOzkPqKF-JLqJAu-92" style="edgeStyle=orthogonalEdgeStyle;rounded=0;orthogonalLoop=1;jettySize=auto;html=1;exitX=1;exitY=0.5;exitDx=0;exitDy=0;entryX=0;entryY=0.5;entryDx=0;entryDy=0;" edge="1" parent="WIyWlLk6GJQsqaUBKTNV-1" source="6sasAcOzkPqKF-JLqJAu-85" target="6sasAcOzkPqKF-JLqJAu-86">
          <mxGeometry relative="1" as="geometry" />
        </mxCell>
        <mxCell id="6sasAcOzkPqKF-JLqJAu-114" style="edgeStyle=orthogonalEdgeStyle;rounded=0;orthogonalLoop=1;jettySize=auto;html=1;exitX=0.5;exitY=1;exitDx=0;exitDy=0;entryX=0.5;entryY=0;entryDx=0;entryDy=0;" edge="1" parent="WIyWlLk6GJQsqaUBKTNV-1" source="6sasAcOzkPqKF-JLqJAu-85" target="6sasAcOzkPqKF-JLqJAu-112">
          <mxGeometry relative="1" as="geometry" />
        </mxCell>
        <mxCell id="6sasAcOzkPqKF-JLqJAu-85" value="Type Deposite Fund" style="rounded=1;whiteSpace=wrap;html=1;" vertex="1" parent="WIyWlLk6GJQsqaUBKTNV-1">
          <mxGeometry x="-580" y="995" width="120" height="50.01" as="geometry" />
        </mxCell>
        <mxCell id="6sasAcOzkPqKF-JLqJAu-96" style="edgeStyle=orthogonalEdgeStyle;rounded=0;orthogonalLoop=1;jettySize=auto;html=1;exitX=1;exitY=0.5;exitDx=0;exitDy=0;entryX=0;entryY=0.5;entryDx=0;entryDy=0;" edge="1" parent="WIyWlLk6GJQsqaUBKTNV-1" source="6sasAcOzkPqKF-JLqJAu-86" target="6sasAcOzkPqKF-JLqJAu-95">
          <mxGeometry relative="1" as="geometry" />
        </mxCell>
        <mxCell id="6sasAcOzkPqKF-JLqJAu-106" style="rounded=0;orthogonalLoop=1;jettySize=auto;html=1;exitX=0.5;exitY=1;exitDx=0;exitDy=0;entryX=0.5;entryY=0;entryDx=0;entryDy=0;" edge="1" parent="WIyWlLk6GJQsqaUBKTNV-1" source="6sasAcOzkPqKF-JLqJAu-86" target="6sasAcOzkPqKF-JLqJAu-103">
          <mxGeometry relative="1" as="geometry" />
        </mxCell>
        <mxCell id="6sasAcOzkPqKF-JLqJAu-86" value="ConnectBankAccount" style="rounded=1;whiteSpace=wrap;html=1;" vertex="1" parent="WIyWlLk6GJQsqaUBKTNV-1">
          <mxGeometry x="-380" y="995" width="120" height="50.01" as="geometry" />
        </mxCell>
        <mxCell id="6sasAcOzkPqKF-JLqJAu-88" value="" style="ellipse;whiteSpace=wrap;html=1;aspect=fixed;fillColor=#FFFFFF;strokeColor=#FF0000;" vertex="1" parent="WIyWlLk6GJQsqaUBKTNV-1">
          <mxGeometry x="100" y="1000" width="40" height="40" as="geometry" />
        </mxCell>
        <mxCell id="6sasAcOzkPqKF-JLqJAu-89" value="" style="ellipse;whiteSpace=wrap;html=1;aspect=fixed;fillColor=#000000;strokeColor=#FF0000;" vertex="1" parent="WIyWlLk6GJQsqaUBKTNV-1">
          <mxGeometry x="103.43999999999994" y="1003.4399999999999" width="33.13" height="33.13" as="geometry" />
        </mxCell>
        <mxCell id="6sasAcOzkPqKF-JLqJAu-90" value="start" style="text;html=1;align=center;verticalAlign=middle;whiteSpace=wrap;rounded=0;" vertex="1" parent="WIyWlLk6GJQsqaUBKTNV-1">
          <mxGeometry x="-690" y="965" width="60" height="30" as="geometry" />
        </mxCell>
        <mxCell id="6sasAcOzkPqKF-JLqJAu-94" value="add fund to wallet" style="text;html=1;align=center;verticalAlign=middle;whiteSpace=wrap;rounded=0;" vertex="1" parent="WIyWlLk6GJQsqaUBKTNV-1">
          <mxGeometry x="90" y="970" width="60" height="30" as="geometry" />
        </mxCell>
        <mxCell id="6sasAcOzkPqKF-JLqJAu-100" style="edgeStyle=orthogonalEdgeStyle;rounded=0;orthogonalLoop=1;jettySize=auto;html=1;exitX=1;exitY=0.5;exitDx=0;exitDy=0;entryX=0;entryY=0.5;entryDx=0;entryDy=0;" edge="1" parent="WIyWlLk6GJQsqaUBKTNV-1" source="6sasAcOzkPqKF-JLqJAu-95" target="6sasAcOzkPqKF-JLqJAu-89">
          <mxGeometry relative="1" as="geometry" />
        </mxCell>
        <mxCell id="6sasAcOzkPqKF-JLqJAu-107" style="rounded=0;orthogonalLoop=1;jettySize=auto;html=1;exitX=0.5;exitY=1;exitDx=0;exitDy=0;entryX=0.5;entryY=0;entryDx=0;entryDy=0;" edge="1" parent="WIyWlLk6GJQsqaUBKTNV-1" source="6sasAcOzkPqKF-JLqJAu-95" target="6sasAcOzkPqKF-JLqJAu-103">
          <mxGeometry relative="1" as="geometry" />
        </mxCell>
        <mxCell id="6sasAcOzkPqKF-JLqJAu-95" value="Make Transaction" style="rounded=1;whiteSpace=wrap;html=1;" vertex="1" parent="WIyWlLk6GJQsqaUBKTNV-1">
          <mxGeometry x="-150" y="995" width="120" height="50.01" as="geometry" />
        </mxCell>
        <mxCell id="6sasAcOzkPqKF-JLqJAu-98" value="complete" style="text;html=1;align=center;verticalAlign=middle;whiteSpace=wrap;rounded=0;" vertex="1" parent="WIyWlLk6GJQsqaUBKTNV-1">
          <mxGeometry y="990" width="60" height="30" as="geometry" />
        </mxCell>
        <mxCell id="6sasAcOzkPqKF-JLqJAu-99" value="enough balance" style="text;html=1;align=center;verticalAlign=middle;whiteSpace=wrap;rounded=0;" vertex="1" parent="WIyWlLk6GJQsqaUBKTNV-1">
          <mxGeometry x="-240" y="990" width="60" height="30" as="geometry" />
        </mxCell>
        <mxCell id="6sasAcOzkPqKF-JLqJAu-102" value="valid fund" style="text;html=1;align=center;verticalAlign=middle;whiteSpace=wrap;rounded=0;" vertex="1" parent="WIyWlLk6GJQsqaUBKTNV-1">
          <mxGeometry x="-450" y="990" width="60" height="30" as="geometry" />
        </mxCell>
        <mxCell id="6sasAcOzkPqKF-JLqJAu-103" value="" style="ellipse;whiteSpace=wrap;html=1;aspect=fixed;fillColor=#FFFFFF;strokeColor=#FF0000;" vertex="1" parent="WIyWlLk6GJQsqaUBKTNV-1">
          <mxGeometry x="-220" y="1170" width="40" height="40" as="geometry" />
        </mxCell>
        <mxCell id="6sasAcOzkPqKF-JLqJAu-104" value="" style="ellipse;whiteSpace=wrap;html=1;aspect=fixed;fillColor=#000000;strokeColor=#FF0000;" vertex="1" parent="WIyWlLk6GJQsqaUBKTNV-1">
          <mxGeometry x="-216.57000000000005" y="1173.43" width="33.13" height="33.13" as="geometry" />
        </mxCell>
        <mxCell id="6sasAcOzkPqKF-JLqJAu-108" value="invalid fund" style="text;html=1;align=center;verticalAlign=middle;whiteSpace=wrap;rounded=0;" vertex="1" parent="WIyWlLk6GJQsqaUBKTNV-1">
          <mxGeometry x="-520" y="1070" width="60" height="30" as="geometry" />
        </mxCell>
        <mxCell id="6sasAcOzkPqKF-JLqJAu-109" value="not enough balance" style="text;html=1;align=center;verticalAlign=middle;whiteSpace=wrap;rounded=0;" vertex="1" parent="WIyWlLk6GJQsqaUBKTNV-1">
          <mxGeometry x="-260" y="1070" width="60" height="30" as="geometry" />
        </mxCell>
        <mxCell id="6sasAcOzkPqKF-JLqJAu-110" value="transaction eror" style="text;html=1;align=center;verticalAlign=middle;whiteSpace=wrap;rounded=0;" vertex="1" parent="WIyWlLk6GJQsqaUBKTNV-1">
          <mxGeometry x="-110" y="1090" width="60" height="30" as="geometry" />
        </mxCell>
        <mxCell id="6sasAcOzkPqKF-JLqJAu-111" value="cancel transaction" style="text;html=1;align=center;verticalAlign=middle;whiteSpace=wrap;rounded=0;" vertex="1" parent="WIyWlLk6GJQsqaUBKTNV-1">
          <mxGeometry x="-230" y="1220" width="60" height="30" as="geometry" />
        </mxCell>
        <mxCell id="6sasAcOzkPqKF-JLqJAu-112" value="" style="ellipse;whiteSpace=wrap;html=1;aspect=fixed;fillColor=#FFFFFF;strokeColor=#FF0000;" vertex="1" parent="WIyWlLk6GJQsqaUBKTNV-1">
          <mxGeometry x="-540" y="1129" width="40" height="40" as="geometry" />
        </mxCell>
        <mxCell id="6sasAcOzkPqKF-JLqJAu-113" value="" style="ellipse;whiteSpace=wrap;html=1;aspect=fixed;fillColor=#000000;strokeColor=#FF0000;" vertex="1" parent="WIyWlLk6GJQsqaUBKTNV-1">
          <mxGeometry x="-536.57" y="1132.43" width="33.13" height="33.13" as="geometry" />
        </mxCell>
        <mxCell id="6sasAcOzkPqKF-JLqJAu-115" value="sendError" style="text;html=1;align=center;verticalAlign=middle;whiteSpace=wrap;rounded=0;" vertex="1" parent="WIyWlLk6GJQsqaUBKTNV-1">
          <mxGeometry x="-550.01" y="1180" width="60" height="30" as="geometry" />
        </mxCell>
        <mxCell id="6sasAcOzkPqKF-JLqJAu-116" style="edgeStyle=orthogonalEdgeStyle;rounded=0;orthogonalLoop=1;jettySize=auto;html=1;exitX=1;exitY=0.5;exitDx=0;exitDy=0;entryX=0;entryY=0.5;entryDx=0;entryDy=0;" edge="1" parent="WIyWlLk6GJQsqaUBKTNV-1" source="6sasAcOzkPqKF-JLqJAu-117" target="6sasAcOzkPqKF-JLqJAu-121">
          <mxGeometry relative="1" as="geometry" />
        </mxCell>
        <mxCell id="6sasAcOzkPqKF-JLqJAu-117" value="" style="ellipse;whiteSpace=wrap;html=1;aspect=fixed;fillColor=#FFFFFF;strokeColor=#FF0000;" vertex="1" parent="WIyWlLk6GJQsqaUBKTNV-1">
          <mxGeometry x="-670.02" y="1365" width="40" height="40" as="geometry" />
        </mxCell>
        <mxCell id="6sasAcOzkPqKF-JLqJAu-118" value="" style="ellipse;whiteSpace=wrap;html=1;aspect=fixed;fillColor=#000000;strokeColor=#FF0000;" vertex="1" parent="WIyWlLk6GJQsqaUBKTNV-1">
          <mxGeometry x="-666.58" y="1368.44" width="33.13" height="33.13" as="geometry" />
        </mxCell>
        <mxCell id="6sasAcOzkPqKF-JLqJAu-119" style="edgeStyle=orthogonalEdgeStyle;rounded=0;orthogonalLoop=1;jettySize=auto;html=1;exitX=1;exitY=0.5;exitDx=0;exitDy=0;entryX=0;entryY=0.5;entryDx=0;entryDy=0;" edge="1" parent="WIyWlLk6GJQsqaUBKTNV-1" source="6sasAcOzkPqKF-JLqJAu-121" target="6sasAcOzkPqKF-JLqJAu-124">
          <mxGeometry relative="1" as="geometry" />
        </mxCell>
        <mxCell id="6sasAcOzkPqKF-JLqJAu-120" style="edgeStyle=orthogonalEdgeStyle;rounded=0;orthogonalLoop=1;jettySize=auto;html=1;exitX=0.5;exitY=1;exitDx=0;exitDy=0;entryX=0.5;entryY=0;entryDx=0;entryDy=0;" edge="1" parent="WIyWlLk6GJQsqaUBKTNV-1" source="6sasAcOzkPqKF-JLqJAu-121" target="6sasAcOzkPqKF-JLqJAu-141">
          <mxGeometry relative="1" as="geometry" />
        </mxCell>
        <mxCell id="6sasAcOzkPqKF-JLqJAu-121" value="Type Withdraw Fund" style="rounded=1;whiteSpace=wrap;html=1;" vertex="1" parent="WIyWlLk6GJQsqaUBKTNV-1">
          <mxGeometry x="-570.01" y="1360" width="120" height="50.01" as="geometry" />
        </mxCell>
        <mxCell id="6sasAcOzkPqKF-JLqJAu-122" style="edgeStyle=orthogonalEdgeStyle;rounded=0;orthogonalLoop=1;jettySize=auto;html=1;exitX=1;exitY=0.5;exitDx=0;exitDy=0;entryX=0;entryY=0.5;entryDx=0;entryDy=0;" edge="1" parent="WIyWlLk6GJQsqaUBKTNV-1" source="6sasAcOzkPqKF-JLqJAu-124" target="6sasAcOzkPqKF-JLqJAu-131">
          <mxGeometry relative="1" as="geometry" />
        </mxCell>
        <mxCell id="6sasAcOzkPqKF-JLqJAu-124" value="ConnectBankAccount" style="rounded=1;whiteSpace=wrap;html=1;" vertex="1" parent="WIyWlLk6GJQsqaUBKTNV-1">
          <mxGeometry x="-350" y="1359.99" width="120" height="50.01" as="geometry" />
        </mxCell>
        <mxCell id="6sasAcOzkPqKF-JLqJAu-125" value="" style="ellipse;whiteSpace=wrap;html=1;aspect=fixed;fillColor=#FFFFFF;strokeColor=#FF0000;" vertex="1" parent="WIyWlLk6GJQsqaUBKTNV-1">
          <mxGeometry x="109.99" y="1365" width="40" height="40" as="geometry" />
        </mxCell>
        <mxCell id="6sasAcOzkPqKF-JLqJAu-126" value="" style="ellipse;whiteSpace=wrap;html=1;aspect=fixed;fillColor=#000000;strokeColor=#FF0000;" vertex="1" parent="WIyWlLk6GJQsqaUBKTNV-1">
          <mxGeometry x="113.42999999999994" y="1368.44" width="33.13" height="33.13" as="geometry" />
        </mxCell>
        <mxCell id="6sasAcOzkPqKF-JLqJAu-127" value="start" style="text;html=1;align=center;verticalAlign=middle;whiteSpace=wrap;rounded=0;" vertex="1" parent="WIyWlLk6GJQsqaUBKTNV-1">
          <mxGeometry x="-680.01" y="1330" width="60" height="30" as="geometry" />
        </mxCell>
        <mxCell id="6sasAcOzkPqKF-JLqJAu-128" value="add fund to bank account" style="text;html=1;align=center;verticalAlign=middle;whiteSpace=wrap;rounded=0;" vertex="1" parent="WIyWlLk6GJQsqaUBKTNV-1">
          <mxGeometry x="103.44" y="1325" width="60" height="30" as="geometry" />
        </mxCell>
        <mxCell id="6sasAcOzkPqKF-JLqJAu-129" style="edgeStyle=orthogonalEdgeStyle;rounded=0;orthogonalLoop=1;jettySize=auto;html=1;exitX=1;exitY=0.5;exitDx=0;exitDy=0;entryX=0;entryY=0.5;entryDx=0;entryDy=0;" edge="1" parent="WIyWlLk6GJQsqaUBKTNV-1" source="6sasAcOzkPqKF-JLqJAu-131" target="6sasAcOzkPqKF-JLqJAu-126">
          <mxGeometry relative="1" as="geometry" />
        </mxCell>
        <mxCell id="6sasAcOzkPqKF-JLqJAu-130" style="rounded=0;orthogonalLoop=1;jettySize=auto;html=1;exitX=0.5;exitY=1;exitDx=0;exitDy=0;entryX=0.5;entryY=0;entryDx=0;entryDy=0;" edge="1" parent="WIyWlLk6GJQsqaUBKTNV-1" source="6sasAcOzkPqKF-JLqJAu-131" target="6sasAcOzkPqKF-JLqJAu-135">
          <mxGeometry relative="1" as="geometry" />
        </mxCell>
        <mxCell id="6sasAcOzkPqKF-JLqJAu-131" value="Make Transaction" style="rounded=1;whiteSpace=wrap;html=1;" vertex="1" parent="WIyWlLk6GJQsqaUBKTNV-1">
          <mxGeometry x="-140.01" y="1360" width="120" height="50.01" as="geometry" />
        </mxCell>
        <mxCell id="6sasAcOzkPqKF-JLqJAu-132" value="complete" style="text;html=1;align=center;verticalAlign=middle;whiteSpace=wrap;rounded=0;" vertex="1" parent="WIyWlLk6GJQsqaUBKTNV-1">
          <mxGeometry x="9.99" y="1355" width="60" height="30" as="geometry" />
        </mxCell>
        <mxCell id="6sasAcOzkPqKF-JLqJAu-134" value="valid fund" style="text;html=1;align=center;verticalAlign=middle;whiteSpace=wrap;rounded=0;" vertex="1" parent="WIyWlLk6GJQsqaUBKTNV-1">
          <mxGeometry x="-440.01" y="1355" width="60" height="30" as="geometry" />
        </mxCell>
        <mxCell id="6sasAcOzkPqKF-JLqJAu-135" value="" style="ellipse;whiteSpace=wrap;html=1;aspect=fixed;fillColor=#FFFFFF;strokeColor=#FF0000;" vertex="1" parent="WIyWlLk6GJQsqaUBKTNV-1">
          <mxGeometry x="-99.99999999999999" y="1530.56" width="40" height="40" as="geometry" />
        </mxCell>
        <mxCell id="6sasAcOzkPqKF-JLqJAu-136" value="" style="ellipse;whiteSpace=wrap;html=1;aspect=fixed;fillColor=#000000;strokeColor=#FF0000;" vertex="1" parent="WIyWlLk6GJQsqaUBKTNV-1">
          <mxGeometry x="-96.57000000000004" y="1533.99" width="33.13" height="33.13" as="geometry" />
        </mxCell>
        <mxCell id="6sasAcOzkPqKF-JLqJAu-137" value="invalid fund" style="text;html=1;align=center;verticalAlign=middle;whiteSpace=wrap;rounded=0;" vertex="1" parent="WIyWlLk6GJQsqaUBKTNV-1">
          <mxGeometry x="-510.01" y="1435" width="60" height="30" as="geometry" />
        </mxCell>
        <mxCell id="6sasAcOzkPqKF-JLqJAu-139" value="transaction eror" style="text;html=1;align=center;verticalAlign=middle;whiteSpace=wrap;rounded=0;" vertex="1" parent="WIyWlLk6GJQsqaUBKTNV-1">
          <mxGeometry x="-63.440000000000005" y="1460" width="60" height="30" as="geometry" />
        </mxCell>
        <mxCell id="6sasAcOzkPqKF-JLqJAu-140" value="cancel transaction" style="text;html=1;align=center;verticalAlign=middle;whiteSpace=wrap;rounded=0;" vertex="1" parent="WIyWlLk6GJQsqaUBKTNV-1">
          <mxGeometry x="-109.99999999999999" y="1585" width="60" height="30" as="geometry" />
        </mxCell>
        <mxCell id="6sasAcOzkPqKF-JLqJAu-141" value="" style="ellipse;whiteSpace=wrap;html=1;aspect=fixed;fillColor=#FFFFFF;strokeColor=#FF0000;" vertex="1" parent="WIyWlLk6GJQsqaUBKTNV-1">
          <mxGeometry x="-530.01" y="1494" width="40" height="40" as="geometry" />
        </mxCell>
        <mxCell id="6sasAcOzkPqKF-JLqJAu-142" value="" style="ellipse;whiteSpace=wrap;html=1;aspect=fixed;fillColor=#000000;strokeColor=#FF0000;" vertex="1" parent="WIyWlLk6GJQsqaUBKTNV-1">
          <mxGeometry x="-526.58" y="1497.43" width="33.13" height="33.13" as="geometry" />
        </mxCell>
        <mxCell id="6sasAcOzkPqKF-JLqJAu-143" value="sendError" style="text;html=1;align=center;verticalAlign=middle;whiteSpace=wrap;rounded=0;" vertex="1" parent="WIyWlLk6GJQsqaUBKTNV-1">
          <mxGeometry x="-540.02" y="1545" width="60" height="30" as="geometry" />
        </mxCell>
        <mxCell id="6sasAcOzkPqKF-JLqJAu-150" style="edgeStyle=orthogonalEdgeStyle;rounded=0;orthogonalLoop=1;jettySize=auto;html=1;exitX=1;exitY=0.5;exitDx=0;exitDy=0;" edge="1" parent="WIyWlLk6GJQsqaUBKTNV-1" source="6sasAcOzkPqKF-JLqJAu-144" target="6sasAcOzkPqKF-JLqJAu-147">
          <mxGeometry relative="1" as="geometry" />
        </mxCell>
        <mxCell id="6sasAcOzkPqKF-JLqJAu-144" value="" style="ellipse;whiteSpace=wrap;html=1;aspect=fixed;fillColor=#FFFFFF;strokeColor=#FF0000;" vertex="1" parent="WIyWlLk6GJQsqaUBKTNV-1">
          <mxGeometry x="-503.44" y="1690" width="40" height="40" as="geometry" />
        </mxCell>
        <mxCell id="6sasAcOzkPqKF-JLqJAu-145" value="" style="ellipse;whiteSpace=wrap;html=1;aspect=fixed;fillColor=#000000;strokeColor=#FF0000;" vertex="1" parent="WIyWlLk6GJQsqaUBKTNV-1">
          <mxGeometry x="-500.01000000000005" y="1693.43" width="33.13" height="33.13" as="geometry" />
        </mxCell>
        <mxCell id="6sasAcOzkPqKF-JLqJAu-146" value="start" style="text;html=1;align=center;verticalAlign=middle;whiteSpace=wrap;rounded=0;" vertex="1" parent="WIyWlLk6GJQsqaUBKTNV-1">
          <mxGeometry x="-513.44" y="1650" width="60" height="30" as="geometry" />
        </mxCell>
        <mxCell id="6sasAcOzkPqKF-JLqJAu-151" style="edgeStyle=orthogonalEdgeStyle;rounded=0;orthogonalLoop=1;jettySize=auto;html=1;exitX=1;exitY=0.5;exitDx=0;exitDy=0;entryX=0;entryY=0.5;entryDx=0;entryDy=0;" edge="1" parent="WIyWlLk6GJQsqaUBKTNV-1" source="6sasAcOzkPqKF-JLqJAu-147" target="6sasAcOzkPqKF-JLqJAu-148">
          <mxGeometry relative="1" as="geometry" />
        </mxCell>
        <mxCell id="6sasAcOzkPqKF-JLqJAu-147" value="get wallet info" style="rounded=1;whiteSpace=wrap;html=1;" vertex="1" parent="WIyWlLk6GJQsqaUBKTNV-1">
          <mxGeometry x="-378.43" y="1690" width="98.43" height="40" as="geometry" />
        </mxCell>
        <mxCell id="6sasAcOzkPqKF-JLqJAu-148" value="" style="ellipse;whiteSpace=wrap;html=1;aspect=fixed;fillColor=#FFFFFF;strokeColor=#FF0000;" vertex="1" parent="WIyWlLk6GJQsqaUBKTNV-1">
          <mxGeometry x="-210" y="1690" width="40" height="40" as="geometry" />
        </mxCell>
        <mxCell id="6sasAcOzkPqKF-JLqJAu-149" value="" style="ellipse;whiteSpace=wrap;html=1;aspect=fixed;fillColor=#000000;strokeColor=#FF0000;" vertex="1" parent="WIyWlLk6GJQsqaUBKTNV-1">
          <mxGeometry x="-206.57000000000005" y="1693.43" width="33.13" height="33.13" as="geometry" />
        </mxCell>
        <mxCell id="6sasAcOzkPqKF-JLqJAu-152" style="edgeStyle=orthogonalEdgeStyle;rounded=0;orthogonalLoop=1;jettySize=auto;html=1;exitX=0.5;exitY=0;exitDx=0;exitDy=0;" edge="1" parent="WIyWlLk6GJQsqaUBKTNV-1" source="6sasAcOzkPqKF-JLqJAu-154" target="6sasAcOzkPqKF-JLqJAu-163">
          <mxGeometry relative="1" as="geometry" />
        </mxCell>
        <mxCell id="6sasAcOzkPqKF-JLqJAu-153" style="edgeStyle=orthogonalEdgeStyle;rounded=0;orthogonalLoop=1;jettySize=auto;html=1;exitX=0;exitY=0.5;exitDx=0;exitDy=0;" edge="1" parent="WIyWlLk6GJQsqaUBKTNV-1" source="6sasAcOzkPqKF-JLqJAu-154" target="6sasAcOzkPqKF-JLqJAu-166">
          <mxGeometry relative="1" as="geometry" />
        </mxCell>
        <mxCell id="6sasAcOzkPqKF-JLqJAu-154" value="&amp;lt;&amp;lt;controller&amp;gt;&amp;gt;&lt;br&gt;&lt;b&gt;WalletController&lt;/b&gt;" style="swimlane;fontStyle=0;align=center;verticalAlign=top;childLayout=stackLayout;horizontal=1;startSize=55;horizontalStack=0;resizeParent=1;resizeParentMax=0;resizeLast=0;collapsible=0;marginBottom=0;html=1;whiteSpace=wrap;" vertex="1" parent="WIyWlLk6GJQsqaUBKTNV-1">
          <mxGeometry x="790" y="1240" width="200" height="220" as="geometry" />
        </mxCell>
        <mxCell id="6sasAcOzkPqKF-JLqJAu-155" value="" style="line;strokeWidth=1;fillColor=none;align=left;verticalAlign=middle;spacingTop=-1;spacingLeft=3;spacingRight=3;rotatable=0;labelPosition=right;points=[];portConstraint=eastwest;" vertex="1" parent="6sasAcOzkPqKF-JLqJAu-154">
          <mxGeometry y="55" width="200" height="8" as="geometry" />
        </mxCell>
        <mxCell id="6sasAcOzkPqKF-JLqJAu-156" value="&lt;br&gt;&lt;div&gt;&lt;br&gt;&lt;/div&gt;" style="text;html=1;strokeColor=none;fillColor=none;align=left;verticalAlign=middle;spacingLeft=4;spacingRight=4;overflow=hidden;rotatable=0;points=[[0,0.5],[1,0.5]];portConstraint=eastwest;whiteSpace=wrap;" vertex="1" parent="6sasAcOzkPqKF-JLqJAu-154">
          <mxGeometry y="63" width="200" height="157" as="geometry" />
        </mxCell>
        <mxCell id="6sasAcOzkPqKF-JLqJAu-157" style="edgeStyle=orthogonalEdgeStyle;rounded=0;orthogonalLoop=1;jettySize=auto;html=1;exitX=0;exitY=0.5;exitDx=0;exitDy=0;entryX=1;entryY=0.5;entryDx=0;entryDy=0;" edge="1" parent="WIyWlLk6GJQsqaUBKTNV-1" source="6sasAcOzkPqKF-JLqJAu-159" target="6sasAcOzkPqKF-JLqJAu-154">
          <mxGeometry relative="1" as="geometry" />
        </mxCell>
        <mxCell id="6sasAcOzkPqKF-JLqJAu-158" style="edgeStyle=orthogonalEdgeStyle;rounded=0;orthogonalLoop=1;jettySize=auto;html=1;exitX=0.5;exitY=0;exitDx=0;exitDy=0;" edge="1" parent="WIyWlLk6GJQsqaUBKTNV-1" source="6sasAcOzkPqKF-JLqJAu-159" target="6sasAcOzkPqKF-JLqJAu-172">
          <mxGeometry relative="1" as="geometry" />
        </mxCell>
        <mxCell id="6sasAcOzkPqKF-JLqJAu-159" value="&amp;lt;&amp;lt;boundary&amp;gt;&amp;gt;&lt;br&gt;&lt;b&gt;WalletSerciveBoundary&lt;/b&gt;" style="swimlane;fontStyle=0;align=center;verticalAlign=top;childLayout=stackLayout;horizontal=1;startSize=55;horizontalStack=0;resizeParent=1;resizeParentMax=0;resizeLast=0;collapsible=0;marginBottom=0;html=1;whiteSpace=wrap;" vertex="1" parent="WIyWlLk6GJQsqaUBKTNV-1">
          <mxGeometry x="1100" y="1270" width="330" height="160" as="geometry" />
        </mxCell>
        <mxCell id="6sasAcOzkPqKF-JLqJAu-160" value="" style="line;strokeWidth=1;fillColor=none;align=left;verticalAlign=middle;spacingTop=-1;spacingLeft=3;spacingRight=3;rotatable=0;labelPosition=right;points=[];portConstraint=eastwest;" vertex="1" parent="6sasAcOzkPqKF-JLqJAu-159">
          <mxGeometry y="55" width="330" height="8" as="geometry" />
        </mxCell>
        <mxCell id="6sasAcOzkPqKF-JLqJAu-161" value="&lt;div&gt;&lt;br&gt;&lt;/div&gt;" style="text;html=1;strokeColor=none;fillColor=none;align=left;verticalAlign=middle;spacingLeft=4;spacingRight=4;overflow=hidden;rotatable=0;points=[[0,0.5],[1,0.5]];portConstraint=eastwest;whiteSpace=wrap;" vertex="1" parent="6sasAcOzkPqKF-JLqJAu-159">
          <mxGeometry y="63" width="330" height="97" as="geometry" />
        </mxCell>
        <mxCell id="6sasAcOzkPqKF-JLqJAu-162" style="edgeStyle=orthogonalEdgeStyle;rounded=0;orthogonalLoop=1;jettySize=auto;html=1;exitX=0;exitY=0.5;exitDx=0;exitDy=0;" edge="1" parent="WIyWlLk6GJQsqaUBKTNV-1" source="6sasAcOzkPqKF-JLqJAu-163" target="6sasAcOzkPqKF-JLqJAu-169">
          <mxGeometry relative="1" as="geometry" />
        </mxCell>
        <mxCell id="6sasAcOzkPqKF-JLqJAu-163" value="&amp;lt;&amp;lt;entity&amp;gt;&amp;gt;&lt;br&gt;&lt;b&gt;Wallet&lt;/b&gt;" style="swimlane;fontStyle=0;align=center;verticalAlign=top;childLayout=stackLayout;horizontal=1;startSize=55;horizontalStack=0;resizeParent=1;resizeParentMax=0;resizeLast=0;collapsible=0;marginBottom=0;html=1;whiteSpace=wrap;" vertex="1" parent="WIyWlLk6GJQsqaUBKTNV-1">
          <mxGeometry x="750" y="990" width="280" height="150" as="geometry" />
        </mxCell>
        <mxCell id="6sasAcOzkPqKF-JLqJAu-164" value="" style="line;strokeWidth=1;fillColor=none;align=left;verticalAlign=middle;spacingTop=-1;spacingLeft=3;spacingRight=3;rotatable=0;labelPosition=right;points=[];portConstraint=eastwest;" vertex="1" parent="6sasAcOzkPqKF-JLqJAu-163">
          <mxGeometry y="55" width="280" height="8" as="geometry" />
        </mxCell>
        <mxCell id="6sasAcOzkPqKF-JLqJAu-165" value="- walletID: int&lt;div&gt;- balance: int&lt;/div&gt;&lt;div&gt;- owner: User&lt;/div&gt;" style="text;html=1;strokeColor=none;fillColor=none;align=left;verticalAlign=middle;spacingLeft=4;spacingRight=4;overflow=hidden;rotatable=0;points=[[0,0.5],[1,0.5]];portConstraint=eastwest;whiteSpace=wrap;" vertex="1" parent="6sasAcOzkPqKF-JLqJAu-163">
          <mxGeometry y="63" width="280" height="87" as="geometry" />
        </mxCell>
        <mxCell id="6sasAcOzkPqKF-JLqJAu-166" value="&amp;lt;&amp;lt;interface&amp;gt;&amp;gt;&lt;br&gt;&lt;b&gt;BankingSystemInterface&lt;/b&gt;" style="swimlane;fontStyle=0;align=center;verticalAlign=top;childLayout=stackLayout;horizontal=1;startSize=55;horizontalStack=0;resizeParent=1;resizeParentMax=0;resizeLast=0;collapsible=0;marginBottom=0;html=1;whiteSpace=wrap;" vertex="1" parent="WIyWlLk6GJQsqaUBKTNV-1">
          <mxGeometry x="380" y="1255" width="320" height="190" as="geometry" />
        </mxCell>
        <mxCell id="6sasAcOzkPqKF-JLqJAu-167" value="" style="line;strokeWidth=1;fillColor=none;align=left;verticalAlign=middle;spacingTop=-1;spacingLeft=3;spacingRight=3;rotatable=0;labelPosition=right;points=[];portConstraint=eastwest;" vertex="1" parent="6sasAcOzkPqKF-JLqJAu-166">
          <mxGeometry y="55" width="320" height="8" as="geometry" />
        </mxCell>
        <mxCell id="6sasAcOzkPqKF-JLqJAu-168" value="&lt;div&gt;+ getBankAccountID: string&lt;/div&gt;&lt;div&gt;- completeTransaction: boolean&lt;/div&gt;&lt;div&gt;- BalanceEnough: boolean&lt;/div&gt;" style="text;html=1;strokeColor=none;fillColor=none;align=left;verticalAlign=middle;spacingLeft=4;spacingRight=4;overflow=hidden;rotatable=0;points=[[0,0.5],[1,0.5]];portConstraint=eastwest;whiteSpace=wrap;" vertex="1" parent="6sasAcOzkPqKF-JLqJAu-166">
          <mxGeometry y="63" width="320" height="127" as="geometry" />
        </mxCell>
        <mxCell id="6sasAcOzkPqKF-JLqJAu-169" value="&amp;lt;&amp;lt;entity&amp;gt;&amp;gt;&lt;br&gt;&lt;b&gt;HistoryTransaction&lt;/b&gt;" style="swimlane;fontStyle=0;align=center;verticalAlign=top;childLayout=stackLayout;horizontal=1;startSize=55;horizontalStack=0;resizeParent=1;resizeParentMax=0;resizeLast=0;collapsible=0;marginBottom=0;html=1;whiteSpace=wrap;" vertex="1" parent="WIyWlLk6GJQsqaUBKTNV-1">
          <mxGeometry x="460" y="1000" width="200" height="130" as="geometry" />
        </mxCell>
        <mxCell id="6sasAcOzkPqKF-JLqJAu-170" value="" style="line;strokeWidth=1;fillColor=none;align=left;verticalAlign=middle;spacingTop=-1;spacingLeft=3;spacingRight=3;rotatable=0;labelPosition=right;points=[];portConstraint=eastwest;" vertex="1" parent="6sasAcOzkPqKF-JLqJAu-169">
          <mxGeometry y="55" width="200" height="8" as="geometry" />
        </mxCell>
        <mxCell id="6sasAcOzkPqKF-JLqJAu-171" value="- fund: int&lt;div&gt;- time: date&lt;/div&gt;&lt;div&gt;- walletID: int&lt;/div&gt;&lt;div&gt;- bankaccountId: string&lt;/div&gt;" style="text;html=1;strokeColor=none;fillColor=none;align=left;verticalAlign=middle;spacingLeft=4;spacingRight=4;overflow=hidden;rotatable=0;points=[[0,0.5],[1,0.5]];portConstraint=eastwest;whiteSpace=wrap;" vertex="1" parent="6sasAcOzkPqKF-JLqJAu-169">
          <mxGeometry y="63" width="200" height="67" as="geometry" />
        </mxCell>
        <mxCell id="6sasAcOzkPqKF-JLqJAu-172" value="&amp;lt;&amp;lt;entity&amp;gt;&amp;gt;&lt;br&gt;&lt;b&gt;Deposite/WithdrawForm&lt;/b&gt;" style="swimlane;fontStyle=0;align=center;verticalAlign=top;childLayout=stackLayout;horizontal=1;startSize=55;horizontalStack=0;resizeParent=1;resizeParentMax=0;resizeLast=0;collapsible=0;marginBottom=0;html=1;whiteSpace=wrap;" vertex="1" parent="WIyWlLk6GJQsqaUBKTNV-1">
          <mxGeometry x="1100" y="990" width="330" height="160" as="geometry" />
        </mxCell>
        <mxCell id="6sasAcOzkPqKF-JLqJAu-173" value="" style="line;strokeWidth=1;fillColor=none;align=left;verticalAlign=middle;spacingTop=-1;spacingLeft=3;spacingRight=3;rotatable=0;labelPosition=right;points=[];portConstraint=eastwest;" vertex="1" parent="6sasAcOzkPqKF-JLqJAu-172">
          <mxGeometry y="55" width="330" height="8" as="geometry" />
        </mxCell>
        <mxCell id="6sasAcOzkPqKF-JLqJAu-174" value="- accepted: boolean&lt;div&gt;- ownerID: string&lt;/div&gt;&lt;div&gt;- fundDeposite: int&lt;/div&gt;&lt;div&gt;- fundWithdraw: int&lt;/div&gt;&lt;div&gt;- walletID: int&lt;/div&gt;" style="text;html=1;strokeColor=none;fillColor=none;align=left;verticalAlign=middle;spacingLeft=4;spacingRight=4;overflow=hidden;rotatable=0;points=[[0,0.5],[1,0.5]];portConstraint=eastwest;whiteSpace=wrap;" vertex="1" parent="6sasAcOzkPqKF-JLqJAu-172">
          <mxGeometry y="63" width="330" height="97" as="geometry" />
        </mxCell>
        <mxCell id="6sasAcOzkPqKF-JLqJAu-175" value="1" style="text;html=1;align=center;verticalAlign=middle;whiteSpace=wrap;rounded=0;" vertex="1" parent="WIyWlLk6GJQsqaUBKTNV-1">
          <mxGeometry x="880" y="1210" width="50" height="30" as="geometry" />
        </mxCell>
        <mxCell id="6sasAcOzkPqKF-JLqJAu-176" value="0..1" style="text;html=1;align=center;verticalAlign=middle;whiteSpace=wrap;rounded=0;" vertex="1" parent="WIyWlLk6GJQsqaUBKTNV-1">
          <mxGeometry x="884" y="1140" width="50" height="30" as="geometry" />
        </mxCell>
        <mxCell id="6sasAcOzkPqKF-JLqJAu-177" value="1" style="text;html=1;align=center;verticalAlign=middle;whiteSpace=wrap;rounded=0;" vertex="1" parent="WIyWlLk6GJQsqaUBKTNV-1">
          <mxGeometry x="680" y="1320" width="50" height="30" as="geometry" />
        </mxCell>
        <mxCell id="6sasAcOzkPqKF-JLqJAu-178" value="1" style="text;html=1;align=center;verticalAlign=middle;whiteSpace=wrap;rounded=0;" vertex="1" parent="WIyWlLk6GJQsqaUBKTNV-1">
          <mxGeometry x="750" y="1320" width="50" height="30" as="geometry" />
        </mxCell>
        <mxCell id="6sasAcOzkPqKF-JLqJAu-179" value="1" style="text;html=1;align=center;verticalAlign=middle;whiteSpace=wrap;rounded=0;" vertex="1" parent="WIyWlLk6GJQsqaUBKTNV-1">
          <mxGeometry x="1050" y="1320" width="50" height="30" as="geometry" />
        </mxCell>
        <mxCell id="6sasAcOzkPqKF-JLqJAu-180" value="1" style="text;html=1;align=center;verticalAlign=middle;whiteSpace=wrap;rounded=0;" vertex="1" parent="WIyWlLk6GJQsqaUBKTNV-1">
          <mxGeometry x="990" y="1350" width="50" height="30" as="geometry" />
        </mxCell>
        <mxCell id="6sasAcOzkPqKF-JLqJAu-181" value="0..1" style="text;html=1;align=center;verticalAlign=middle;whiteSpace=wrap;rounded=0;" vertex="1" parent="WIyWlLk6GJQsqaUBKTNV-1">
          <mxGeometry x="1260" y="1150" width="50" height="30" as="geometry" />
        </mxCell>
        <mxCell id="6sasAcOzkPqKF-JLqJAu-182" value="1" style="text;html=1;align=center;verticalAlign=middle;whiteSpace=wrap;rounded=0;" vertex="1" parent="WIyWlLk6GJQsqaUBKTNV-1">
          <mxGeometry x="1260" y="1240" width="50" height="30" as="geometry" />
        </mxCell>
        <mxCell id="6sasAcOzkPqKF-JLqJAu-183" value="0..n" style="text;html=1;align=center;verticalAlign=middle;whiteSpace=wrap;rounded=0;" vertex="1" parent="WIyWlLk6GJQsqaUBKTNV-1">
          <mxGeometry x="660" y="1040" width="50" height="30" as="geometry" />
        </mxCell>
        <mxCell id="6sasAcOzkPqKF-JLqJAu-184" value="1" style="text;html=1;align=center;verticalAlign=middle;whiteSpace=wrap;rounded=0;" vertex="1" parent="WIyWlLk6GJQsqaUBKTNV-1">
          <mxGeometry x="710" y="1060" width="50" height="30" as="geometry" />
        </mxCell>
        <mxCell id="6sasAcOzkPqKF-JLqJAu-185" style="edgeStyle=orthogonalEdgeStyle;rounded=0;orthogonalLoop=1;jettySize=auto;html=1;exitX=1;exitY=0.5;exitDx=0;exitDy=0;entryX=0;entryY=0.5;entryDx=0;entryDy=0;" edge="1" parent="WIyWlLk6GJQsqaUBKTNV-1" source="6sasAcOzkPqKF-JLqJAu-186" target="6sasAcOzkPqKF-JLqJAu-191">
          <mxGeometry relative="1" as="geometry" />
        </mxCell>
        <mxCell id="6sasAcOzkPqKF-JLqJAu-186" value="&amp;lt;&amp;lt;boundary&amp;gt;&amp;gt;&lt;br&gt;&lt;b&gt;AdminSubmitFormBoundary&lt;/b&gt;" style="swimlane;fontStyle=0;align=center;verticalAlign=top;childLayout=stackLayout;horizontal=1;startSize=55;horizontalStack=0;resizeParent=1;resizeParentMax=0;resizeLast=0;collapsible=0;marginBottom=0;html=1;whiteSpace=wrap;" vertex="1" parent="WIyWlLk6GJQsqaUBKTNV-1">
          <mxGeometry x="414" y="1784" width="200" height="110" as="geometry" />
        </mxCell>
        <mxCell id="6sasAcOzkPqKF-JLqJAu-187" value="" style="line;strokeWidth=1;fillColor=none;align=left;verticalAlign=middle;spacingTop=-1;spacingLeft=3;spacingRight=3;rotatable=0;labelPosition=right;points=[];portConstraint=eastwest;" vertex="1" parent="6sasAcOzkPqKF-JLqJAu-186">
          <mxGeometry y="55" width="200" height="8" as="geometry" />
        </mxCell>
        <mxCell id="6sasAcOzkPqKF-JLqJAu-188" value="&lt;div&gt;&amp;nbsp;&lt;/div&gt;" style="text;html=1;strokeColor=none;fillColor=none;align=left;verticalAlign=middle;spacingLeft=4;spacingRight=4;overflow=hidden;rotatable=0;points=[[0,0.5],[1,0.5]];portConstraint=eastwest;whiteSpace=wrap;" vertex="1" parent="6sasAcOzkPqKF-JLqJAu-186">
          <mxGeometry y="63" width="200" height="47" as="geometry" />
        </mxCell>
        <mxCell id="6sasAcOzkPqKF-JLqJAu-189" style="edgeStyle=orthogonalEdgeStyle;rounded=0;orthogonalLoop=1;jettySize=auto;html=1;exitX=1;exitY=0.5;exitDx=0;exitDy=0;" edge="1" parent="WIyWlLk6GJQsqaUBKTNV-1" source="6sasAcOzkPqKF-JLqJAu-191" target="6sasAcOzkPqKF-JLqJAu-194">
          <mxGeometry relative="1" as="geometry" />
        </mxCell>
        <mxCell id="6sasAcOzkPqKF-JLqJAu-190" style="edgeStyle=orthogonalEdgeStyle;rounded=0;orthogonalLoop=1;jettySize=auto;html=1;exitX=0.5;exitY=0;exitDx=0;exitDy=0;" edge="1" parent="WIyWlLk6GJQsqaUBKTNV-1" source="6sasAcOzkPqKF-JLqJAu-191" target="6sasAcOzkPqKF-JLqJAu-197">
          <mxGeometry relative="1" as="geometry" />
        </mxCell>
        <mxCell id="6sasAcOzkPqKF-JLqJAu-191" value="&amp;lt;&amp;lt;controller&amp;gt;&amp;gt;&lt;br&gt;&lt;b&gt;SentInfoController&lt;/b&gt;" style="swimlane;fontStyle=0;align=center;verticalAlign=top;childLayout=stackLayout;horizontal=1;startSize=55;horizontalStack=0;resizeParent=1;resizeParentMax=0;resizeLast=0;collapsible=0;marginBottom=0;html=1;whiteSpace=wrap;" vertex="1" parent="WIyWlLk6GJQsqaUBKTNV-1">
          <mxGeometry x="684" y="1784" width="200" height="110" as="geometry" />
        </mxCell>
        <mxCell id="6sasAcOzkPqKF-JLqJAu-192" value="" style="line;strokeWidth=1;fillColor=none;align=left;verticalAlign=middle;spacingTop=-1;spacingLeft=3;spacingRight=3;rotatable=0;labelPosition=right;points=[];portConstraint=eastwest;" vertex="1" parent="6sasAcOzkPqKF-JLqJAu-191">
          <mxGeometry y="55" width="200" height="8" as="geometry" />
        </mxCell>
        <mxCell id="6sasAcOzkPqKF-JLqJAu-193" value="&amp;nbsp;" style="text;html=1;strokeColor=none;fillColor=none;align=left;verticalAlign=middle;spacingLeft=4;spacingRight=4;overflow=hidden;rotatable=0;points=[[0,0.5],[1,0.5]];portConstraint=eastwest;whiteSpace=wrap;" vertex="1" parent="6sasAcOzkPqKF-JLqJAu-191">
          <mxGeometry y="63" width="200" height="47" as="geometry" />
        </mxCell>
        <mxCell id="6sasAcOzkPqKF-JLqJAu-194" value="&amp;lt;&amp;lt;boundary&amp;gt;&amp;gt;&lt;br&gt;&lt;b&gt;UserBoundary&lt;/b&gt;" style="swimlane;fontStyle=0;align=center;verticalAlign=top;childLayout=stackLayout;horizontal=1;startSize=55;horizontalStack=0;resizeParent=1;resizeParentMax=0;resizeLast=0;collapsible=0;marginBottom=0;html=1;whiteSpace=wrap;" vertex="1" parent="WIyWlLk6GJQsqaUBKTNV-1">
          <mxGeometry x="974" y="1784" width="200" height="110" as="geometry" />
        </mxCell>
        <mxCell id="6sasAcOzkPqKF-JLqJAu-195" value="" style="line;strokeWidth=1;fillColor=none;align=left;verticalAlign=middle;spacingTop=-1;spacingLeft=3;spacingRight=3;rotatable=0;labelPosition=right;points=[];portConstraint=eastwest;" vertex="1" parent="6sasAcOzkPqKF-JLqJAu-194">
          <mxGeometry y="55" width="200" height="8" as="geometry" />
        </mxCell>
        <mxCell id="6sasAcOzkPqKF-JLqJAu-196" value="&amp;nbsp;" style="text;html=1;strokeColor=none;fillColor=none;align=left;verticalAlign=middle;spacingLeft=4;spacingRight=4;overflow=hidden;rotatable=0;points=[[0,0.5],[1,0.5]];portConstraint=eastwest;whiteSpace=wrap;" vertex="1" parent="6sasAcOzkPqKF-JLqJAu-194">
          <mxGeometry y="63" width="200" height="47" as="geometry" />
        </mxCell>
        <mxCell id="6sasAcOzkPqKF-JLqJAu-197" value="&amp;lt;&amp;lt;entity&amp;gt;&amp;gt;&lt;br&gt;&lt;b&gt;HistoryInfo&lt;/b&gt;" style="swimlane;fontStyle=0;align=center;verticalAlign=top;childLayout=stackLayout;horizontal=1;startSize=55;horizontalStack=0;resizeParent=1;resizeParentMax=0;resizeLast=0;collapsible=0;marginBottom=0;html=1;whiteSpace=wrap;" vertex="1" parent="WIyWlLk6GJQsqaUBKTNV-1">
          <mxGeometry x="684" y="1614" width="200" height="130" as="geometry" />
        </mxCell>
        <mxCell id="6sasAcOzkPqKF-JLqJAu-198" value="" style="line;strokeWidth=1;fillColor=none;align=left;verticalAlign=middle;spacingTop=-1;spacingLeft=3;spacingRight=3;rotatable=0;labelPosition=right;points=[];portConstraint=eastwest;" vertex="1" parent="6sasAcOzkPqKF-JLqJAu-197">
          <mxGeometry y="55" width="200" height="8" as="geometry" />
        </mxCell>
        <mxCell id="6sasAcOzkPqKF-JLqJAu-199" value="- Notification: string&lt;div&gt;- adminID: string&lt;/div&gt;&lt;div&gt;- userID: List[string]&lt;/div&gt;" style="text;html=1;strokeColor=none;fillColor=none;align=left;verticalAlign=middle;spacingLeft=4;spacingRight=4;overflow=hidden;rotatable=0;points=[[0,0.5],[1,0.5]];portConstraint=eastwest;whiteSpace=wrap;" vertex="1" parent="6sasAcOzkPqKF-JLqJAu-197">
          <mxGeometry y="63" width="200" height="67" as="geometry" />
        </mxCell>
      </root>
    </mxGraphModel>
  </diagram>
</mxfile>
